<?xml version="1.0" encoding="UTF-8"?>
<svg version="1.1" xmlns="http://www.w3.org/2000/svg" width="111" height="100">
<path d="M0 0 C5.875 1.875 5.875 1.875 7 3 C7.16796875 4.99609375 7.16796875 4.99609375 7.1875 7.4375 C7.20167969 8.24058594 7.21585937 9.04367188 7.23046875 9.87109375 C6.8650753 13.24633832 4.65481063 14.28727169 2.08984375 16.421875 C-2.82113061 20.61345592 -7.36551064 25.17946138 -11.92749023 29.7421875 C-13.45344834 31.26592513 -14.98728145 32.7814443 -16.52148438 34.296875 C-17.49267457 35.2651367 -18.46339558 36.23386929 -19.43359375 37.203125 C-20.31072021 38.07614258 -21.18784668 38.94916016 -22.09155273 39.84863281 C-24.22120333 41.77005012 -24.22120333 41.77005012 -24 44 C-27.90906271 44.83106058 -31.10189244 44.95693615 -35 44 C-39.6626316 40.76738505 -43.3419053 36.29012154 -47 32 C-47.53109375 32.40992188 -48.0621875 32.81984375 -48.609375 33.2421875 C-49.31578125 33.78101563 -50.0221875 34.31984375 -50.75 34.875 C-51.44609375 35.40867188 -52.1421875 35.94234375 -52.859375 36.4921875 C-57.82334499 39.98870651 -60.99346459 40.38751841 -67 40 C-69.36107042 37.63892958 -71.38352262 35.06924275 -73.46484375 32.4609375 C-75.00899909 30.65531052 -75.00899909 30.65531052 -78 31 C-79.90001535 32.46012659 -79.90001535 32.46012659 -81.6875 34.375 C-82.31011719 35.00148437 -82.93273437 35.62796875 -83.57421875 36.2734375 C-85.21224873 37.88382994 -85.21224873 37.88382994 -85 40 C-86.47906892 40.02689216 -87.95827483 40.04634621 -89.4375 40.0625 C-90.26121094 40.07410156 -91.08492188 40.08570313 -91.93359375 40.09765625 C-94 40 -94 40 -95 39 C-95.64198048 36.07241431 -95.8202413 34.81788409 -95 32 C-92.23890628 28.3921196 -88.95467848 25.39101739 -85.625 22.3125 C-83.86304167 20.64630028 -82.10505004 18.97589321 -80.3515625 17.30078125 C-79.56604004 16.57028564 -78.78051758 15.83979004 -77.97119141 15.0871582 C-76.09773217 13.10348183 -75.09731578 11.4677296 -74 9 C-70.8185107 5.23685338 -67.36427229 2.66437442 -62.5 1.625 C-59.54178497 1.46482592 -58.43493673 1.63218881 -56.15234375 3.5625 C-54.98874452 4.96199976 -53.8630074 6.39368728 -52.7734375 7.8515625 C-50.07023754 11.12636421 -46.69838233 13.00191292 -43 15 C-41.84775972 14.07038578 -40.70340824 13.1309875 -39.5625 12.1875 C-38.60537109 11.40439453 -38.60537109 11.40439453 -37.62890625 10.60546875 C-35.7451725 8.99165589 -35.7451725 8.99165589 -35 6 C-28.375 5 -28.375 5 -25 5 C-22.5625 7.25 -22.5625 7.25 -20 10 C-19.278125 10.721875 -18.55625 11.44375 -17.8125 12.1875 C-16.54166667 13.45833333 -15.27083333 14.72916667 -14 16 C-13.63648437 15.57589844 -13.27296875 15.15179688 -12.8984375 14.71484375 C-11.84136028 13.48158699 -10.7840524 12.24852792 -9.7265625 11.015625 C-8.59462993 9.69418335 -7.46436036 8.37131497 -6.3359375 7.046875 C-5.55089844 6.12648438 -5.55089844 6.12648438 -4.75 5.1875 C-4.27046875 4.62417969 -3.7909375 4.06085937 -3.296875 3.48046875 C-2.24389718 2.2784248 -1.12997167 1.12997167 0 0 Z M-37.6875 19.63671875 C-38.120625 20.08660156 -38.55375 20.53648438 -39 21 C-36.65259805 25.14311035 -35.13588478 27.61461052 -30.5 29.1875 C-26.20532775 28.95742827 -24.96834598 28.04857155 -22 25 C-20.62631655 23.36643049 -19.28062485 21.7074998 -18 20 C-18.7425 19.7525 -19.485 19.505 -20.25 19.25 C-23.20905747 17.90497388 -24.72793537 16.27206463 -27 14 C-31.52251727 14 -34.49955286 16.54470521 -37.6875 19.63671875 Z M-63 17 C-63 17.66 -63 18.32 -63 19 C-63.99 18.67 -64.98 18.34 -66 18 C-68.64 20.64 -71.28 23.28 -74 26 C-72.02 26.99 -72.02 26.99 -70 28 C-69.13375 28.53625 -68.2675 29.0725 -67.375 29.625 C-65.16890995 31.16701209 -65.16890995 31.16701209 -63 31 C-62.67 31.66 -62.34 32.32 -62 33 C-57.48864333 30.80528594 -55.93726652 28.58826282 -54 24 C-57.02505386 19.73952281 -57.02505386 19.73952281 -61.3125 17.125 C-61.869375 17.08375 -62.42625 17.0425 -63 17 Z M-18 18 C-17.67 18.66 -17.34 19.32 -17 20 C-16.67 19.34 -16.34 18.68 -16 18 C-16.66 18 -17.32 18 -18 18 Z M-75 27 C-75.33 27.66 -75.66 28.32 -76 29 C-75.34 29 -74.68 29 -74 29 C-74.33 28.34 -74.66 27.68 -75 27 Z " fill="#629ADA" transform="translate(97,25)"/>
<path d="M0 0 C5.875 1.875 5.875 1.875 7 3 C7.16796875 4.99609375 7.16796875 4.99609375 7.1875 7.4375 C7.20167969 8.24058594 7.21585938 9.04367188 7.23046875 9.87109375 C6.8650753 13.24633832 4.65481063 14.28727169 2.08984375 16.421875 C-2.82113061 20.61345592 -7.36551064 25.17946138 -11.92749023 29.7421875 C-13.45344834 31.26592513 -14.98728145 32.7814443 -16.52148438 34.296875 C-17.49267457 35.2651367 -18.46339558 36.23386929 -19.43359375 37.203125 C-20.31072021 38.07614258 -21.18784668 38.94916016 -22.09155273 39.84863281 C-24.22120333 41.77005012 -24.22120333 41.77005012 -24 44 C-29.136905 44.77773702 -33.28906238 45.18106692 -37.69921875 42.13671875 C-44.29680055 35.64537821 -44.29680055 35.64537821 -45 31 C-43.35 31 -41.7 31 -40 31 C-40 31.66 -40 32.32 -40 33 C-38.8553125 33.433125 -38.8553125 33.433125 -37.6875 33.875 C-35 35 -35 35 -32 37 C-29.37468476 37.16713569 -29.37468476 37.16713569 -27 37 C-26.67 36.01 -26.34 35.02 -26 34 C-26.95712891 33.81824219 -26.95712891 33.81824219 -27.93359375 33.6328125 C-28.75988281 33.46523438 -29.58617188 33.29765625 -30.4375 33.125 C-31.26121094 32.96257813 -32.08492187 32.80015625 -32.93359375 32.6328125 C-33.61550781 32.42398438 -34.29742187 32.21515625 -35 32 C-35.33 31.34 -35.66 30.68 -36 30 C-34.046875 29.54427083 -32.09375 29.08854167 -30.140625 28.6328125 C-25.97077927 27.40012088 -23.24955412 25.50430133 -20.1796875 22.4453125 C-19.12974609 21.39923828 -19.12974609 21.39923828 -18.05859375 20.33203125 C-17.33800781 19.60371094 -16.61742188 18.87539063 -15.875 18.125 C-15.14667969 17.40441406 -14.41835937 16.68382813 -13.66796875 15.94140625 C-12.97058594 15.24144531 -12.27320313 14.54148437 -11.5546875 13.8203125 C-10.92030762 13.18367676 -10.28592773 12.54704102 -9.63232422 11.89111328 C-8.00438284 10.0050777 -7.04841526 8.24534623 -6 6 C-4.11083032 3.86611922 -2.06297713 1.97328247 0 0 Z " fill="#6AA8ED" transform="translate(97,25)"/>
<path d="M0 0 C1.32 0.66 2.64 1.32 4 2 C4 2.99 4 3.98 4 5 C5.65 5 7.3 5 9 5 C8.625 6.9375 8.625 6.9375 8 9 C7.34 9.33 6.68 9.66 6 10 C5.34 9.67 4.68 9.34 4 9 C3.86851563 9.95261719 3.73703125 10.90523437 3.6015625 11.88671875 C1.89401971 17.86613005 -3.24400504 21.68230113 -7.625 25.8125 C-9.39214615 27.50220655 -11.15539561 29.19600114 -12.9140625 30.89453125 C-14.0889624 32.00598511 -14.0889624 32.00598511 -15.28759766 33.13989258 C-17.22576429 34.82385382 -17.22576429 34.82385382 -17 37 C-18.47906892 37.02689216 -19.95827483 37.04634621 -21.4375 37.0625 C-22.26121094 37.07410156 -23.08492187 37.08570313 -23.93359375 37.09765625 C-26 37 -26 37 -27 36 C-27.64198048 33.07241431 -27.8202413 31.81788409 -27 29 C-24.23890628 25.3921196 -20.95467848 22.39101739 -17.625 19.3125 C-15.86304167 17.64630028 -14.10505004 15.97589321 -12.3515625 14.30078125 C-11.56604004 13.57028564 -10.78051758 12.83979004 -9.97119141 12.0871582 C-8.09731522 10.10304036 -7.10302318 8.46509962 -6 6 C-4.11083032 3.86611922 -2.06297713 1.97328247 0 0 Z " fill="#6BA9F0" transform="translate(29,28)"/>
<path d="M0 0 C3.35847137 0.7112057 4.88128472 2.84188272 6.9921875 5.421875 C7.7346875 6.123125 8.4771875 6.824375 9.2421875 7.546875 C10.9921875 9.421875 10.9921875 9.421875 11.9921875 12.421875 C11.0021875 12.751875 10.0121875 13.081875 8.9921875 13.421875 C8.6621875 14.081875 8.3321875 14.741875 7.9921875 15.421875 C4.14452183 14.65234187 2.7524822 13.1821697 -0.0078125 10.421875 C-3.51052369 10.78422443 -6.08111918 12.56592314 -9.0078125 14.421875 C-11.5078125 15.921875 -11.5078125 15.921875 -14.0078125 17.421875 C-14.9978125 16.431875 -15.9878125 15.441875 -17.0078125 14.421875 C-15.67598364 11.52243897 -14.1748662 9.25310401 -12.0703125 6.859375 C-11.56628906 6.28058594 -11.06226563 5.70179687 -10.54296875 5.10546875 C-10.03636719 4.54988281 -9.52976562 3.99429688 -9.0078125 3.421875 C-8.52957031 2.86628906 -8.05132812 2.31070312 -7.55859375 1.73828125 C-5.25506571 -0.21710654 -2.92320665 -0.10707717 0 0 Z " fill="#EA523B" transform="translate(70.0078125,29.578125)"/>
<path d="M0 0 C1.9375 0.6875 1.9375 0.6875 4 2 C4.62890625 4.58203125 4.62890625 4.58203125 5 7 C0.37727606 11.82425959 -3.14055216 14.72259467 -9.921875 15.22265625 C-14.19686823 14.76462126 -16.52301695 12.73299743 -19.1875 9.5 C-19.95126953 8.58734375 -19.95126953 8.58734375 -20.73046875 7.65625 C-22 6 -22 6 -23 4 C-22.34 4 -21.68 4 -21 4 C-21 3.34 -21 2.68 -21 2 C-15.71201818 2.41474367 -12.88309282 3.35224614 -9 7 C-5.46627288 5.03681826 -2.75520215 2.95929119 0 0 Z " fill="#7EF63D" transform="translate(44,50)"/>
<path d="M0 0 C-0.9384375 0.91523437 -1.876875 1.83046875 -2.84375 2.7734375 C-4.06276041 3.97369391 -5.28149629 5.17422919 -6.5 6.375 C-7.12003906 6.97828125 -7.74007812 7.5815625 -8.37890625 8.203125 C-8.96542969 8.78320312 -9.55195312 9.36328125 -10.15625 9.9609375 C-10.97319336 10.76217041 -10.97319336 10.76217041 -11.80664062 11.57958984 C-13.21441999 12.94602023 -13.21441999 12.94602023 -13 15 C-18.136905 15.77773702 -22.28906238 16.18106692 -26.69921875 13.13671875 C-33.29680055 6.64537821 -33.29680055 6.64537821 -34 2 C-32.35 2 -30.7 2 -29 2 C-29 2.66 -29 3.32 -29 4 C-28.236875 4.28875 -27.47375 4.5775 -26.6875 4.875 C-24 6 -24 6 -21 8 C-17.89143 8.23314275 -15.98586231 7.99528744 -13 7 C-12.67 6.01 -12.34 5.02 -12 4 C-10.29296875 2.578125 -10.29296875 2.578125 -8.1875 1.25 C-7.50042969 0.80140625 -6.81335938 0.3528125 -6.10546875 -0.109375 C-3.56377327 -1.18452633 -2.57611381 -0.76613551 0 0 Z " fill="#86B5E8" transform="translate(86,54)"/>
<path d="M0 0 C0.33 0.99 0.66 1.98 1 3 C-0.4375 5.1875 -0.4375 5.1875 -2 7 C2.40114397 6.49701212 4.71195019 4.91227269 8 2 C9.32 2.66 10.64 3.32 12 4 C11.4946875 4.48210938 10.989375 4.96421875 10.46875 5.4609375 C9.8190625 6.09257813 9.169375 6.72421875 8.5 7.375 C7.52546875 8.31472656 7.52546875 8.31472656 6.53125 9.2734375 C4.77882569 10.86475907 4.77882569 10.86475907 5 13 C3.52093108 13.02689216 2.04172517 13.04634621 0.5625 13.0625 C-0.67306641 13.07990234 -0.67306641 13.07990234 -1.93359375 13.09765625 C-4 13 -4 13 -5 12 C-5.375 8.75 -5.375 8.75 -5 5 C-2.5 2.0625 -2.5 2.0625 0 0 Z " fill="#85B1DB" transform="translate(7,52)"/>
<path d="M0 0 C3.31832766 0.98652984 4.76548627 1.68731503 6.875 4.5 C7.24625 5.325 7.6175 6.15 8 7 C7.67 7.66 7.34 8.32 7 9 C6.34 9 5.68 9 5 9 C4.67 9.66 4.34 10.32 4 11 C1.13275314 10.42655063 0.1385485 10.1385485 -2 8 C-3.1875 6 -3.1875 6 -4 4 C-3.67 3.34 -3.34 2.68 -3 2 C-2.01 2 -1.02 2 0 2 C0 1.34 0 0.68 0 0 Z " fill="#F57C58" transform="translate(74,34)"/>
<path d="M0 0 C0.33 0.66 0.66 1.32 1 2 C2.98 2 4.96 2 7 2 C7 2.99 7 3.98 7 5 C4.8125 6.5 4.8125 6.5 2 8 C1.071875 8.556875 0.14375 9.11375 -0.8125 9.6875 C-1.534375 10.120625 -2.25625 10.55375 -3 11 C-3.99 10.01 -4.98 9.02 -6 8 C-4.55746343 4.63408134 -2.66735273 2.48952921 0 0 Z " fill="#F4845F" transform="translate(59,36)"/>
<path d="M0 0 C1.32 0.33 2.64 0.66 4 1 C3.13375 1.83144531 3.13375 1.83144531 2.25 2.6796875 C1.5075 3.40414062 0.765 4.12859375 0 4.875 C-0.7425 5.59429687 -1.485 6.31359375 -2.25 7.0546875 C-4.22293325 8.81170957 -4.22293325 8.81170957 -4 11 C-6.97 11 -9.94 11 -13 11 C-13.33 10.01 -13.66 9.02 -14 8 C-13.07767578 7.83564453 -13.07767578 7.83564453 -12.13671875 7.66796875 C-11.32847656 7.50941406 -10.52023438 7.35085937 -9.6875 7.1875 C-8.88699219 7.03667969 -8.08648437 6.88585937 -7.26171875 6.73046875 C-4.74569185 5.91786593 -3.77405234 4.89891233 -2 3 C-1.34 3 -0.68 3 0 3 C0 2.01 0 1.02 0 0 Z " fill="#A1BFDD" transform="translate(77,58)"/>
<path d="M0 0 C1.32 0 2.64 0 4 0 C4.33 0.99 4.66 1.98 5 3 C0.51982193 6.36013356 -2.58815746 6.44359365 -8 6 C-8.66 5.34 -9.32 4.68 -10 4 C-9.67 3.34 -9.34 2.68 -9 2 C-8.21753906 2.01160156 -7.43507813 2.02320313 -6.62890625 2.03515625 C-5.61699219 2.04417969 -4.60507812 2.05320313 -3.5625 2.0625 C-2.04849609 2.07990234 -2.04849609 2.07990234 -0.50390625 2.09765625 C1.94021067 2.28612676 1.94021067 2.28612676 3 1 C2.01 0.67 1.02 0.34 0 0 Z " fill="#58D61F" transform="translate(38,59)"/>
<path d="M0 0 C-3.32307692 3.93846154 -3.32307692 3.93846154 -6.75 4.25 C-7.4925 4.1675 -8.235 4.085 -9 4 C-9 4.99 -9 5.98 -9 7 C-11.5 9.1875 -11.5 9.1875 -14 11 C-14.66 10.67 -15.32 10.34 -16 10 C-12.7747372 4.22140415 -7.23717205 -2.60085871 0 0 Z " fill="#83BAF5" transform="translate(86,54)"/>
<path d="M0 0 C1.32 0.66 2.64 1.32 4 2 C4 3.32 4 4.64 4 6 C3.01 6.66 2.02 7.32 1 8 C1 7.34 1 6.68 1 6 C-0.98 6 -2.96 6 -5 6 C-3.35 4.02 -1.7 2.04 0 0 Z " fill="#C3F083" transform="translate(44,50)"/>
<path d="M0 0 C0.8971875 0.5259375 0.8971875 0.5259375 1.8125 1.0625 C4.10813214 2.33304698 4.10813214 2.33304698 7 1 C10.84283684 0.86026048 14.3171369 0.82148381 18 2 C16.02 3.32 14.04 4.64 12 6 C12 5.01 12 4.02 12 3 C8.7 3.33 5.4 3.66 2 4 C2 3.34 2 2.68 2 2 C1.34 2 0.68 2 0 2 C0 1.34 0 0.68 0 0 Z " fill="#5F9637" transform="translate(31,55)"/>
<path d="M0 0 C2.31 0.33 4.62 0.66 7 1 C7.33 2.32 7.66 3.64 8 5 C5.33333333 5 2.66666667 5 0 5 C-0.66 4.01 -1.32 3.02 -2 2 C-1.34 2 -0.68 2 0 2 C0 1.34 0 0.68 0 0 Z " fill="#A5D16E" transform="translate(23,52)"/>
<path d="M0 0 C2.52588702 2.36292656 3.88820837 3.66462511 5 7 C4.01 7.33 3.02 7.66 2 8 C1.67 8.66 1.34 9.32 1 10 C-1.86724686 9.42655063 -2.8614515 9.1385485 -5 7 C-3 7 -1 7 1 7 C0.67 4.69 0.34 2.38 0 0 Z " fill="#93664E" transform="translate(77,35)"/>
<path d="M0 0 C1.8871875 0.061875 1.8871875 0.061875 3.8125 0.125 C3.8125 1.445 3.8125 2.765 3.8125 4.125 C2.35457116 4.17899736 0.89607288 4.21779177 -0.5625 4.25 C-1.37460938 4.27320313 -2.18671875 4.29640625 -3.0234375 4.3203125 C-5.1875 4.125 -5.1875 4.125 -7.1875 2.125 C-4.09861478 0.06574319 -3.47814073 -0.1140374 0 0 Z " fill="#BA281D" transform="translate(68.1875,29.875)"/>
<path d="M0 0 C2.125 0.9375 2.125 0.9375 4 2 C2.375 4 2.375 4 0 6 C-3.25 6.25 -3.25 6.25 -6 6 C-2.25 1.125 -2.25 1.125 0 0 Z " fill="#83BBF6" transform="translate(15,54)"/>
<path d="M0 0 C2.875 0.25 2.875 0.25 6 1 C7.4375 2.875 7.4375 2.875 8 5 C7.67 5.99 7.34 6.98 7 8 C5.83035398 6.8572081 4.66435444 5.71068285 3.5 4.5625 C2.8503125 3.92441406 2.200625 3.28632812 1.53125 2.62890625 C0 1 0 1 0 0 Z " fill="#6C88A1" transform="translate(53,59)"/>
<path d="M0 0 C-0.66 1.32 -1.32 2.64 -2 4 C-4.9375 3.625 -4.9375 3.625 -8 3 C-8.33 2.34 -8.66 1.68 -9 1 C-6.04335481 -0.4783226 -3.25770263 -0.06032783 0 0 Z " fill="#7BB6F5" transform="translate(70,54)"/>
<path d="M0 0 C0.33 0.66 0.66 1.32 1 2 C2.65 2 4.3 2 6 2 C4.35 3.65 2.7 5.3 1 7 C0.01 6.01 -0.98 5.02 -2 4 C-1.34 2.68 -0.68 1.36 0 0 Z " fill="#F0BD8A" transform="translate(55,40)"/>
<path d="M0 0 C1.32 0.33 2.64 0.66 4 1 C1.36 3.64 -1.28 6.28 -4 9 C-4.33 8.01 -4.66 7.02 -5 6 C-3.625 4.5 -3.625 4.5 -2 3 C-1.34 3 -0.68 3 0 3 C0 2.01 0 1.02 0 0 Z " fill="#A6D3F8" transform="translate(77,58)"/>
<path d="M0 0 C0.33 0.66 0.66 1.32 1 2 C-0.1875 4.625 -0.1875 4.625 -2 7 C-3.32 7 -4.64 7 -6 7 C-4.02 4.69 -2.04 2.38 0 0 Z " fill="#466684" transform="translate(29,28)"/>
<path d="M0 0 C0.66 0.99 1.32 1.98 2 3 C-0.39509338 5.89932357 -2.31245243 6.50168276 -6 7 C-4.02 4.69 -2.04 2.38 0 0 Z " fill="#456C89" transform="translate(97,25)"/>
<path d="M0 0 C-1.65 1.32 -3.3 2.64 -5 4 C-5 3.34 -5 2.68 -5 2 C-6.65 2 -8.3 2 -10 2 C-10 1.67 -10 1.34 -10 1 C-3.375 -1.125 -3.375 -1.125 0 0 Z " fill="#9C6A4F" transform="translate(66,40)"/>
<path d="" fill="#000000" transform="translate(0,0)"/>
<path d="" fill="#000000" transform="translate(0,0)"/>
<path d="" fill="#000000" transform="translate(0,0)"/>
<path d="" fill="#000000" transform="translate(0,0)"/>
<path d="" fill="#000000" transform="translate(0,0)"/>
<path d="" fill="#000000" transform="translate(0,0)"/>
<path d="" fill="#000000" transform="translate(0,0)"/>
<path d="" fill="#000000" transform="translate(0,0)"/>
<path d="" fill="#000000" transform="translate(0,0)"/>
<path d="" fill="#000000" transform="translate(0,0)"/>
<path d="" fill="#000000" transform="translate(0,0)"/>
<path d="" fill="#000000" transform="translate(0,0)"/>
<path d="" fill="#000000" transform="translate(0,0)"/>
<path d="" fill="#000000" transform="translate(0,0)"/>
<path d="" fill="#000000" transform="translate(0,0)"/>
<path d="" fill="#000000" transform="translate(0,0)"/>
<path d="" fill="#000000" transform="translate(0,0)"/>
<path d="" fill="#000000" transform="translate(0,0)"/>
<path d="" fill="#000000" transform="translate(0,0)"/>
<path d="" fill="#000000" transform="translate(0,0)"/>
<path d="" fill="#000000" transform="translate(0,0)"/>
<path d="" fill="#000000" transform="translate(0,0)"/>
<path d="" fill="#000000" transform="translate(0,0)"/>
<path d="" fill="#000000" transform="translate(0,0)"/>
<path d="" fill="#000000" transform="translate(0,0)"/>
<path d="" fill="#000000" transform="translate(0,0)"/>
<path d="" fill="#000000" transform="translate(0,0)"/>
<path d="" fill="#000000" transform="translate(0,0)"/>
<path d="" fill="#000000" transform="translate(0,0)"/>
<path d="" fill="#000000" transform="translate(0,0)"/>
<path d="" fill="#000000" transform="translate(0,0)"/>
<path d="" fill="#000000" transform="translate(0,0)"/>
<path d="" fill="#000000" transform="translate(0,0)"/>
<path d="" fill="#000000" transform="translate(0,0)"/>
<path d="" fill="#000000" transform="translate(0,0)"/>
<path d="" fill="#000000" transform="translate(0,0)"/>
<path d="" fill="#000000" transform="translate(0,0)"/>
<path d="" fill="#000000" transform="translate(0,0)"/>
<path d="" fill="#000000" transform="translate(0,0)"/>
<path d="" fill="#000000" transform="translate(0,0)"/>
<path d="" fill="#000000" transform="translate(0,0)"/>
<path d="" fill="#000000" transform="translate(0,0)"/>
<path d="" fill="#000000" transform="translate(0,0)"/>
<path d="" fill="#000000" transform="translate(0,0)"/>
<path d="" fill="#000000" transform="translate(0,0)"/>
<path d="" fill="#000000" transform="translate(0,0)"/>
<path d="" fill="#000000" transform="translate(0,0)"/>
<path d="" fill="#000000" transform="translate(0,0)"/>
<path d="" fill="#000000" transform="translate(0,0)"/>
<path d="" fill="#000000" transform="translate(0,0)"/>
<path d="" fill="#000000" transform="translate(0,0)"/>
<path d="" fill="#000000" transform="translate(0,0)"/>
<path d="" fill="#000000" transform="translate(0,0)"/>
<path d="" fill="#000000" transform="translate(0,0)"/>
<path d="" fill="#000000" transform="translate(0,0)"/>
<path d="" fill="#000000" transform="translate(0,0)"/>
<path d="" fill="#000000" transform="translate(0,0)"/>
<path d="" fill="#000000" transform="translate(0,0)"/>
<path d="" fill="#000000" transform="translate(0,0)"/>
<path d="" fill="#000000" transform="translate(0,0)"/>
<path d="" fill="#000000" transform="translate(0,0)"/>
<path d="" fill="#000000" transform="translate(0,0)"/>
<path d="" fill="#000000" transform="translate(0,0)"/>
<path d="" fill="#000000" transform="translate(0,0)"/>
<path d="" fill="#000000" transform="translate(0,0)"/>
<path d="" fill="#000000" transform="translate(0,0)"/>
<path d="" fill="#000000" transform="translate(0,0)"/>
<path d="" fill="#000000" transform="translate(0,0)"/>
<path d="" fill="#000000" transform="translate(0,0)"/>
<path d="" fill="#000000" transform="translate(0,0)"/>
<path d="" fill="#000000" transform="translate(0,0)"/>
<path d="" fill="#000000" transform="translate(0,0)"/>
<path d="" fill="#000000" transform="translate(0,0)"/>
<path d="" fill="#000000" transform="translate(0,0)"/>
<path d="" fill="#000000" transform="translate(0,0)"/>
<path d="" fill="#000000" transform="translate(0,0)"/>
<path d="" fill="#000000" transform="translate(0,0)"/>
<path d="" fill="#000000" transform="translate(0,0)"/>
<path d="" fill="#000000" transform="translate(0,0)"/>
<path d="" fill="#000000" transform="translate(0,0)"/>
<path d="" fill="#000000" transform="translate(0,0)"/>
<path d="" fill="#000000" transform="translate(0,0)"/>
<path d="" fill="#000000" transform="translate(0,0)"/>
<path d="" fill="#000000" transform="translate(0,0)"/>
<path d="" fill="#000000" transform="translate(0,0)"/>
<path d="" fill="#000000" transform="translate(0,0)"/>
<path d="" fill="#000000" transform="translate(0,0)"/>
<path d="" fill="#000000" transform="translate(0,0)"/>
<path d="" fill="#000000" transform="translate(0,0)"/>
<path d="" fill="#000000" transform="translate(0,0)"/>
<path d="" fill="#000000" transform="translate(0,0)"/>
<path d="" fill="#000000" transform="translate(0,0)"/>
<path d="" fill="#000000" transform="translate(0,0)"/>
<path d="" fill="#000000" transform="translate(0,0)"/>
<path d="" fill="#000000" transform="translate(0,0)"/>
<path d="" fill="#000000" transform="translate(0,0)"/>
<path d="" fill="#000000" transform="translate(0,0)"/>
<path d="" fill="#000000" transform="translate(0,0)"/>
<path d="" fill="#000000" transform="translate(0,0)"/>
<path d="" fill="#000000" transform="translate(0,0)"/>
<path d="" fill="#000000" transform="translate(0,0)"/>
<path d="" fill="#000000" transform="translate(0,0)"/>
<path d="" fill="#000000" transform="translate(0,0)"/>
<path d="" fill="#000000" transform="translate(0,0)"/>
<path d="" fill="#000000" transform="translate(0,0)"/>
<path d="" fill="#000000" transform="translate(0,0)"/>
<path d="" fill="#000000" transform="translate(0,0)"/>
<path d="" fill="#000000" transform="translate(0,0)"/>
<path d="" fill="#000000" transform="translate(0,0)"/>
<path d="" fill="#000000" transform="translate(0,0)"/>
<path d="" fill="#000000" transform="translate(0,0)"/>
<path d="" fill="#000000" transform="translate(0,0)"/>
<path d="" fill="#000000" transform="translate(0,0)"/>
<path d="" fill="#000000" transform="translate(0,0)"/>
<path d="" fill="#000000" transform="translate(0,0)"/>
<path d="" fill="#000000" transform="translate(0,0)"/>
<path d="" fill="#000000" transform="translate(0,0)"/>
<path d="" fill="#000000" transform="translate(0,0)"/>
<path d="" fill="#000000" transform="translate(0,0)"/>
</svg>
